<?xml version="1.0" encoding="UTF-8"?>
<svg xmlns="http://www.w3.org/2000/svg" width="300" height="150">
  <defs>
    <linearGradient id="gradient" x1="0%" y1="0%" x2="100%" y2="0%">
      <stop offset="0%">
        <animate attributeName="stop-color" values="#ff7e5f;#ff00ff;#8A2BE2;#ff7e5f" dur="6s" repeatCount="indefinite" />
      </stop>
      <stop offset="50%">
        <animate attributeName="stop-color" values="#feb47b;#800080;#DA70D6;#feb47b" dur="6s" repeatCount="indefinite" />
      </stop>
      <stop offset="100%">
        <animate attributeName="stop-color" values="#ff7e5f;#BA55D3;#4B0082;#ff7e5f" dur="6s" repeatCount="indefinite" />
      </stop>
    </linearGradient>
    <mask id="mask" mask-type="luminance">
      <rect x="0" y="0" width="100%" height="100%" fill="#000000" />
      <g transform="scale(2.5) translate(0,-8)">
        <path d="M25.68 35.99Q26.03 35.60 26.39 35.57Q26.76 35.55 26.98 35.77Q27.20 35.99 27.17 36.43Q27.15 36.87 26.76 37.40Q25.83 38.67 24.61 40.01Q23.39 41.36 22.00 42.63Q20.61 43.90 19.19 45.02Q17.77 46.14 16.46 46.88Q14.99 47.71 13.99 47.71Q12.99 47.71 12.01 46.44Q11.13 45.31 11.16 44.02Q11.18 42.72 11.72 40.77Q12.06 39.55 12.67 37.87Q13.28 36.18 13.65 34.62Q14.01 33.06 13.87 31.96Q13.72 30.86 12.60 30.86Q11.82 30.86 10.91 31.40Q10.01 31.93 9.11 32.79Q8.20 33.64 7.37 34.72Q6.54 35.79 5.91 36.82Q5.52 38.72 5.13 40.58Q4.79 42.14 4.42 43.97Q4.05 45.80 3.71 47.22Q3.42 47.46 3.08 47.56Q2.73 47.66 2.44 47.66Q2.10 47.66 1.76 47.61Q1.37 47.51 1.03 47.31Q0.73 47.12 0.44 46.80Q0.15 46.48 0 45.95Q2.20 36.91 3.47 31.45Q4.74 25.98 5.42 23.10Q6.20 19.68 6.49 18.36Q6.64 17.43 6.74 16.55Q6.84 15.77 6.84 14.94Q6.84 14.11 6.69 13.43Q7.08 13.18 7.54 13.04Q8.01 12.89 8.45 12.79Q8.98 12.65 9.52 12.55Q10.06 12.45 10.50 12.45Q10.89 12.45 11.23 12.52Q11.57 12.60 11.67 12.84Q11.96 13.09 11.94 13.82Q11.91 14.55 11.82 15.33Q11.62 16.26 11.38 17.33Q10.35 21.29 9.08 25.02Q7.81 28.76 6.74 33.01Q7.37 32.03 8.25 31.01Q9.13 29.98 10.18 29.13Q11.23 28.27 12.40 27.71Q13.57 27.15 14.89 27.15Q15.58 27.15 16.19 27.37Q16.80 27.59 17.26 28.10Q17.72 28.61 17.97 29.47Q18.21 30.32 18.16 31.59Q18.16 32.37 17.99 33.20Q17.82 34.03 17.53 35.03Q17.24 36.04 16.77 37.26Q16.31 38.48 15.67 40.09Q15.23 41.21 14.99 41.99Q14.75 42.77 15.09 43.36Q15.53 44.14 16.82 43.73Q18.12 43.31 20.70 41.21Q21.29 40.72 22.02 39.99Q22.75 39.26 23.44 38.50Q24.12 37.74 24.71 37.06Q25.29 36.38 25.68 35.99ZM45.90 36.57Q44.43 38.72 42.58 40.75Q40.72 42.77 38.65 44.36Q36.57 45.95 34.40 46.92Q32.23 47.90 30.18 47.90Q29.10 47.90 27.86 47.39Q26.61 46.88 25.59 45.80Q24.56 44.73 23.95 43.02Q23.34 41.31 23.58 38.87Q23.78 36.87 24.83 34.64Q25.88 32.42 27.42 30.57Q28.96 28.71 30.88 27.49Q32.81 26.27 34.77 26.27Q36.62 26.27 37.45 27.20Q38.28 28.13 38.18 29.49Q38.04 31.01 37.33 32.28Q36.62 33.54 35.64 34.57Q34.67 35.60 33.57 36.43Q32.47 37.26 31.49 37.94Q30.42 38.67 29.44 39.33Q28.47 39.99 27.73 40.53Q27.78 41.75 28.17 42.58Q28.56 43.41 29.15 43.92Q29.74 44.43 30.49 44.65Q31.25 44.87 32.03 44.87Q33.69 44.87 35.50 43.82Q37.30 42.77 39.04 41.28Q40.77 39.79 42.26 38.18Q43.75 36.57 44.73 35.40Q45.07 35.01 45.43 34.94Q45.80 34.86 46.02 35.03Q46.24 35.21 46.24 35.62Q46.24 36.04 45.90 36.57M33.40 29.05Q32.81 29.05 32.01 29.64Q31.20 30.22 30.42 31.32Q29.64 32.42 28.96 34.01Q28.27 35.60 27.93 37.65Q28.52 37.21 29.20 36.74Q29.88 36.28 30.57 35.74Q32.67 34.13 33.50 32.91Q34.33 31.69 34.42 30.81Q34.52 29.88 34.23 29.47Q33.94 29.05 33.40 29.05ZM55.22 28.76Q55.86 28.27 56.47 28.00Q57.08 27.73 57.57 27.64Q58.11 27.49 58.64 27.54Q59.96 27.64 60.28 28.37Q60.60 29.10 60.35 30.71Q60.21 31.54 59.77 32.81Q59.33 34.08 58.74 35.91Q58.15 37.74 57.50 40.09Q56.84 42.43 56.25 45.36Q55.66 47.75 54.98 50.88Q54.39 53.61 53.59 57.47Q52.78 61.33 51.86 66.31Q51.61 67.53 50.81 67.72Q50 67.92 49.12 67.53Q48.78 67.33 48.49 67.09Q48.24 66.85 47.95 66.53Q47.66 66.21 47.46 65.67Q48.58 61.57 49.44 58.20Q50.29 54.83 50.98 52.34Q51.71 49.46 52.34 47.17Q52.59 46.14 52.81 45.14Q53.03 44.14 53.27 43.16Q52.64 44.19 51.90 45.12Q51.17 46.04 50.29 46.73Q49.41 47.41 48.41 47.78Q47.41 48.14 46.34 48.00Q43.70 47.66 42.60 46.04Q41.50 44.43 41.65 41.85Q41.70 40.82 41.94 39.60Q42.19 38.38 42.48 37.26Q42.77 36.13 43.04 35.23Q43.31 34.33 43.46 33.94Q44.04 32.08 44.31 30.76Q44.58 29.44 43.90 28.56Q44.58 28.13 45.19 27.95Q45.80 27.78 46.29 27.69Q46.83 27.64 47.36 27.69Q48.68 27.88 48.90 28.66Q49.12 29.44 48.73 31.01Q48.54 31.84 48.10 33.13Q47.66 34.42 47.17 35.79Q46.68 37.16 46.29 38.31Q45.90 39.45 45.85 39.94Q45.41 42.14 45.80 43.33Q46.19 44.53 47.51 44.53Q48.14 44.53 48.93 43.97Q49.71 43.41 50.51 42.48Q51.32 41.55 52.10 40.36Q52.88 39.16 53.54 37.94Q54.20 36.72 54.71 35.55Q55.22 34.38 55.47 33.45Q55.81 31.64 55.91 30.62Q56.01 29.59 55.22 28.76ZM63.67 43.02Q64.94 42.82 65.70 43.24Q66.46 43.65 66.36 44.78Q66.31 45.41 65.84 45.97Q65.38 46.53 64.72 46.97Q64.06 47.41 63.33 47.66Q62.60 47.90 62.06 47.90Q61.08 47.90 60.33 47.46Q59.57 47.02 59.67 46.04Q59.72 45.41 60.08 44.90Q60.45 44.38 61.01 43.99Q61.57 43.60 62.28 43.36Q62.99 43.12 63.67 43.02ZM74.37 43.02Q75.63 42.82 76.39 43.24Q77.15 43.65 77.05 44.78Q77.00 45.41 76.54 45.97Q76.07 46.53 75.42 46.97Q74.76 47.41 74.02 47.66Q73.29 47.90 72.75 47.90Q71.78 47.90 71.02 47.46Q70.26 47.02 70.36 46.04Q70.41 45.41 70.78 44.90Q71.14 44.38 71.70 43.99Q72.27 43.60 72.97 43.36Q73.68 43.12 74.37 43.02ZM85.06 43.02Q86.33 42.82 87.08 43.24Q87.84 43.65 87.74 44.78Q87.70 45.41 87.23 45.97Q86.77 46.53 86.11 46.97Q85.45 47.41 84.72 47.66Q83.98 47.90 83.45 47.90Q82.47 47.90 81.71 47.46Q80.96 47.02 81.05 46.04Q81.10 45.41 81.47 44.90Q81.84 44.38 82.40 43.99Q82.96 43.60 83.67 43.36Q84.38 43.12 85.06 43.02ZM103.76 10.06Q104.25 9.96 104.79 9.96Q105.22 9.96 105.74 10.06Q106.25 10.16 106.69 10.45L99.27 37.94Q99.12 38.48 98.39 39.01Q97.66 39.55 96.85 39.87Q96.04 40.19 95.43 40.21Q94.82 40.23 94.92 39.75Q95.12 38.96 95.80 35.94Q96.09 34.62 96.53 32.69Q96.97 30.76 97.58 28.03Q98.19 25.29 99.02 21.66Q99.85 18.02 100.93 13.33Q100.98 12.99 101.03 12.65Q101.07 12.40 101.05 12.11Q101.03 11.82 100.93 11.67Q101.32 11.23 101.81 10.91Q102.29 10.60 102.73 10.40Q103.27 10.21 103.76 10.06M96.24 43.02Q97.51 42.82 98.29 43.24Q99.07 43.65 98.97 44.78Q98.93 45.41 98.44 45.97Q97.95 46.53 97.29 46.97Q96.63 47.41 95.92 47.66Q95.21 47.90 94.68 47.90Q93.65 47.90 92.92 47.46Q92.19 47.02 92.29 46.04Q92.33 45.41 92.70 44.90Q93.07 44.38 93.63 43.99Q94.19 43.60 94.87 43.36Q95.56 43.12 96.24 43.02Z" fill="#FFFFFF" />
      </g>
  </mask>
  </defs>
  <rect x="0" y="0" width="300" height="150" fill="url(#gradient)" mask="url(#mask)" />
</svg>
